<?xml version="1.0" encoding="utf-8"?>
<!-- Svg Vector Icons : http://www.onlinewebfonts.com/icon -->
<!DOCTYPE svg PUBLIC "-//W3C//DTD SVG 1.1//EN" "http://www.w3.org/Graphics/SVG/1.1/DTD/svg11.dtd">
<svg version="1.1" xmlns="http://www.w3.org/2000/svg" xmlns:xlink="http://www.w3.org/1999/xlink" x="0px" y="0px" viewBox="0 0 1000 1000" enable-background="new 0 0 1000 1000" xml:space="preserve">
<metadata> Svg Vector Icons : http://www.onlinewebfonts.com/icon </metadata>
<g><path d="M377.5,561.3H71.3c-33.8,0-61.3,27.4-61.3,61.2v306.3c0,33.8,27.4,61.2,61.3,61.2h306.3c33.8,0,61.3-27.4,61.3-61.2V622.5C438.8,588.6,411.3,561.3,377.5,561.3z M316.3,869.4H132.5V683.8h183.8V869.4z M928.8,10H622.5c-33.9,0-61.3,27.4-61.3,61.3v306.3c0,33.8,27.4,61.3,61.3,61.3h306.3c33.9,0,61.3-27.4,61.3-61.3V71.2C990,37.4,962.6,10,928.8,10z M867.5,318.1H683.8l0-185.6h183.8L867.5,318.1z M377.5,10H71.3C37.4,10,10,37.4,10,71.2v306.3c0,33.8,27.4,61.3,61.3,61.3h306.3c33.8,0,61.3-27.4,61.3-61.3V71.2C438.8,37.4,411.3,10,377.5,10z M316.3,318.1H132.5V132.5h183.8V318.1z M928.8,561.3H622.5c-33.9,0-61.3,27.4-61.3,61.2v306.3c0,33.8,27.4,61.2,61.3,61.2h306.3c33.9,0,61.3-27.4,61.3-61.2V622.5C990,588.6,962.6,561.3,928.8,561.3z M867.5,869.4H683.8V683.8h183.8V869.4z"/></g>
</svg>